<?xml version="1.0" encoding="utf-8"?>
<svg version="1.1" xmlns="http://www.w3.org/2000/svg" xmlns:xlink="http://www.w3.org/1999/xlink" x="0px" y="0px" viewBox="0 0 800 800">
<g id="background">
	<path d="M714.4,339.6l1.5,55c32.4,12.1,36.2,16.6,36.2,30.1c0,33.9-26.4,52-113.1,52H528.2c-90.4,0-109.3-18.8-109.3-93.5V240.8
		l120.6,7.5c-0.8,8.3-4.5,12.8-24.1,16.6v57.3c39.9-21.1,82.2-47.5,105.5-65.6l80.6,79.1c-4.5,3-10.6,5.3-17.3,5.3
		c-8.3,0-18.1-2.3-29.4-6.8c-35.4,6-88.9,12.1-139.4,14.3V384c0,15.8,0.8,16.6,21.1,16.6h103.3c31.7,0,35.4-0.8,70.1-61.1H714.4z"/>
	<path d="M719.7,604.1l0.8,57.3c32.4,12.8,36.2,17.3,36.2,30.1c0,34.7-25.6,52.8-113.8,52.8H529.7c-91.2,0-110.8-18.8-110.8-95
		V488.8l121.3,8.3c-1.5,8.3-5.3,12.8-24.9,15.8v64.8c49.7-24.1,102.5-56.5,131.9-79.1l85.9,77.6c-4.5,3.8-11.3,6-18.8,6
		c-8.3,0-17.3-2.3-27.9-6c-43.7,10.6-109.3,20.4-171.1,24.9v49c0,16.6,0.8,17.3,21.9,17.3h106.3c30.9,0,36.9,0,70.8-63.3H719.7z"/>
	<rect width="800" height="800"/>
</g>
<g id="ba">
	<path fill="#FFFFFF" d="M304.5,340.2c-9-15.8-19.6-29.4-31.7-39.9l4.5-4.5c105.5,3,140.2,39.2,140.2,71.6
		c0,27.1-24.9,51.3-52.8,51.3c-12.1,0-24.9-4.5-36.9-15.8c-2.3-13.6-6.8-27.9-12.8-41.5c-46.7,14.3-111.7,34.1-191.6,54.4l67.1,27.1
		h70.1l36.9-48.2l97.2,69.3c-4.5,6-14.3,12.8-30.1,15.8v172.6c0,52.8-8.3,92-104,102.5c0-59.5-8.3-79.9-47.5-86.7v-9h49
		c4.5,0,6-2.3,6-9.8v-38.4h-81.4v110c0,2.3-12.1,33.9-90.4,33.9V424c-5.3,9-13.6,12.8-21.9,14.3l-33.9-95.7
		c18.1,0.8,44.5,0.8,76.9,0.8c11.3-25.6,22.6-55.8,30.9-83.7c-15.1,3.8-23.4,3.8-46,3.8V50.1l111.6,41.5h369.3l38.4-50.5l104.8,72.4
		c-4.5,6-14.3,12.8-30.1,16.6v99.6c0,0.8-30.9,20.3-105.5,20.3v-20.5H205.6c-1.1,2.2-3.1,4.3-4.5,5.3l85.2,28.6
		c-3.8,8.3-11.3,12.1-29.4,10.6c-24.1,22.6-60.3,48.2-98.7,69.3L304.5,340.2z M268.2,454.9h-81.4v66.3h81.4V454.9z M186.8,598.8
		h81.4v-65.6h-81.4V598.8z M269.7,103.7h-64.1v113.8h64.1V103.7z M429.5,103.7h-65.6v113.8h65.6V103.7z M590.8,103.7h-66.3v113.8
		h66.3V103.7z"/>
</g>
<g id="gong">
	<path fill="#FFFFFF" d="M675.2,670.7l75.9,62.1c-6,8.3-15.8,10.6-38.4,10.6H363.1l-3.8-12.1h130.8V552.8h-71.7l-3.8-12.1h179.6
		l48.8-52.8l63.5,54.3c-6,8.3-16.6,10.6-37.7,10.6h-66.3v178.5h26.1L675.2,670.7z"/>
	<path fill="#FFFFFF" d="M660.1,410.7l69.3,54.5c-6,8.3-15.8,10.6-38.4,10.6H408.2l-3.8-12.1h92.1V312.9h-68.7l-3.8-12.1h174.5
		l43.7-50.2l64.4,51.7c-6,8.3-16.6,10.6-37.7,10.6h-72.6v150.7h22.5L660.1,410.7z"/>
</g>
<g id="crowd" opacity="0.65">
	<path fill="#FFFFFF" d="M755.1,370.8l24.8,19.5c-2.2,3-5.7,3.8-13.8,3.8H664.9l-1.3-4.3h33v-54H672l-1.3-4.3h62.5l15.7-18
		l23.1,18.5c-2.2,3-5.9,3.8-13.5,3.8h-26v54h8.1L755.1,370.8z"/>
	<path fill="#FFFFFF" d="M724.3,614l12.7,10c-1.1,1.5-2.9,1.9-7,1.9h-51.7l-0.7-2.2h16.8v-27.6h-12.6l-0.7-2.2H713l8-9.2l11.8,9.5
		c-1.1,1.5-3,1.9-6.9,1.9h-13.3v27.6h4.1L724.3,614z"/>
	<path fill="#FFFFFF" d="M771,677.3l21.3,16.8c-1.9,2.6-4.9,3.2-11.8,3.2h-87l-1.2-3.7h28.3v-46.4h-21.1l-1.2-3.7h53.7l13.5-15.5
		l19.8,15.9c-1.9,2.6-5.1,3.2-11.6,3.2h-22.3v46.4h6.9L771,677.3z"/>
	<path fill="#FFFFFF" d="M434,660.1l21,16.5c-1.8,2.5-4.8,3.2-11.6,3.2h-85.6l-1.1-3.7h27.9v-45.6h-20.8l-1.1-3.7h52.8l13.2-15.2
		l19.5,15.7c-1.8,2.5-5,3.2-11.4,3.2h-22v45.6h6.8L434,660.1z"/>
	<path fill="#FFFFFF" d="M490.6,516l12.7,10c-1.1,1.5-2.9,1.9-7,1.9h-51.7l-0.7-2.2h16.8v-27.6h-12.6l-0.7-2.2h31.9l8-9.2l11.8,9.5
		c-1.1,1.5-3,1.9-6.9,1.9H479v27.6h4.1L490.6,516z"/>
	<path fill="#FFFFFF" d="M569.4,292.7l17.6,13.8c-1.5,2.1-4,2.7-9.8,2.7h-71.8l-1-3.1h23.4v-38.3h-17.4l-1-3.1h44.3l11.1-12.8
		l16.3,13.1c-1.5,2.1-4.2,2.7-9.6,2.7h-18.4v38.3h5.7L569.4,292.7z"/>
	<path fill="#FFFFFF" d="M651.3,368l12.7,10c-1.1,1.5-2.9,1.9-7,1.9h-51.7l-0.7-2.2h16.8v-27.6h-12.6l-0.7-2.2H640l8-9.2l11.8,9.5
		c-1.1,1.5-3,1.9-6.9,1.9h-13.3v27.6h4.1L651.3,368z"/>
	<path fill="#FFFFFF" d="M762.3,563l12.7,10c-1.1,1.5-2.9,1.9-7,1.9h-51.7l-0.7-2.2h16.8v-27.6h-12.6l-0.7-2.2H751l8-9.2l11.8,9.5
		c-1.1,1.5-3,1.9-6.9,1.9h-13.3v27.6h4.1L762.3,563z"/>
	<path fill="#FFFFFF" d="M665.3,600l12.7,10c-1.1,1.5-2.9,1.9-7,1.9h-51.7l-0.7-2.2h16.8v-27.6h-12.6l-0.7-2.2H654l8-9.2l11.8,9.5
		c-1.1,1.5-3,1.9-6.9,1.9h-13.3v27.6h4.1L665.3,600z"/>
	<path fill="#FFFFFF" d="M468.3,710l12.7,10c-1.1,1.5-2.9,1.9-7,1.9h-51.7l-0.7-2.2h16.8v-27.6h-12.6l-0.7-2.2H457l8-9.2l11.8,9.5
		c-1.1,1.5-3,1.9-6.9,1.9h-13.3v27.6h4.1L468.3,710z"/>
	<path fill="#FFFFFF" d="M452.3,437l12.7,10c-1.1,1.5-2.9,1.9-7,1.9h-51.7l-0.7-2.2h16.8v-27.6h-12.6l-0.7-2.2H441l8-9.2l11.8,9.5
		c-1.1,1.5-3,1.9-6.9,1.9h-13.3v27.6h4.1L452.3,437z"/>
	<path fill="#FFFFFF" d="M490.6,361.6l12.7,10c-1.1,1.5-2.9,1.9-7,1.9h-51.7l-0.7-2.2h16.8v-27.6h-12.6l-0.7-2.2h31.9l8-9.2
		l11.8,9.5c-1.1,1.5-3,1.9-6.9,1.9H479v27.6h4.1L490.6,361.6z"/>
	<path fill="#FFFFFF" d="M715.3,515l12.7,10c-1.1,1.5-2.9,1.9-7,1.9h-51.7l-0.7-2.2h16.8v-27.6h-12.6l-0.7-2.2H704l8-9.2l11.8,9.5
		c-1.1,1.5-3,1.9-6.9,1.9h-13.3v27.6h4.1L715.3,515z"/>
	<path fill="#FFFFFF" d="M569.3,546.1l12.7,10c-1.1,1.5-2.9,1.9-7,1.9h-51.7l-0.7-2.2h16.8v-27.6h-12.6l-0.7-2.2h31.9l8-9.2
		l11.8,9.5c-1.1,1.5-3,1.9-6.9,1.9h-13.3v27.6h4.1L569.3,546.1z"/>
	<path fill="#FFFFFF" d="M759.4,283.9l12.7,10c-1.1,1.5-2.9,1.9-7,1.9h-51.7l-0.7-2.2h16.8V266h-12.6l-0.7-2.2h31.9l8-9.2l11.8,9.5
		c-1.1,1.5-3,1.9-6.9,1.9h-13.3v27.6h4.1L759.4,283.9z"/>
	<path fill="#FFFFFF" d="M506,606.3l12.7,10c-1.1,1.5-2.9,1.9-7,1.9h-51.7l-0.7-2.2h16.8v-27.6h-12.6l-0.7-2.2h31.9l8-9.2l11.8,9.5
		c-1.1,1.5-3,1.9-6.9,1.9h-13.3V616h4.1L506,606.3z"/>
	<path fill="#FFFFFF" d="M418.6,343l12.7,10c-1.1,1.5-2.9,1.9-7,1.9h-51.7l-0.7-2.2h16.8v-27.6h-12.6l-0.7-2.2h31.9l8-9.2l11.8,9.5
		c-1.1,1.5-3,1.9-6.9,1.9H407v27.6h4.1L418.6,343z"/>
	<path fill="#FFFFFF" d="M623.3,686l12.7,10c-1.1,1.5-2.9,1.9-7,1.9h-51.7l-0.7-2.2h16.8v-27.6h-12.6l-0.7-2.2H612l8-9.2l11.8,9.5
		c-1.1,1.5-3,1.9-6.9,1.9h-13.3v27.6h4.1L623.3,686z"/>
</g>
</svg>
